<?xml version="1.0" encoding="utf-8"?>
<!-- Generator: Adobe Illustrator 15.0.0, SVG Export Plug-In  -->
<!DOCTYPE svg PUBLIC "-//W3C//DTD SVG 1.1//EN" "http://www.w3.org/Graphics/SVG/1.1/DTD/svg11.dtd" [
	<!ENTITY ns_flows "http://ns.adobe.com/Flows/1.0/">
]>
<svg version="1.1"
	 xmlns="http://www.w3.org/2000/svg" xmlns:xlink="http://www.w3.org/1999/xlink" xmlns:a="http://ns.adobe.com/AdobeSVGViewerExtensions/3.0/"
	 x="0px" y="0px" width="208px" height="46px" viewBox="0 0 208 46" overflow="visible" enable-background="new 0 0 208 46"
	 xml:space="preserve">
<defs>
	<symbol  id="cloudAnime" viewBox="-89.05 -19.563 178.1 39.101">
		<g id="Layer_1_3_">
			
				<use xlink:href="#clouds"  width="178.1" height="39.101" x="-89.05" y="-19.513" transform="matrix(1 0 0 1 0 -0.0498)" overflow="visible"/>
		</g>
		<g id="Layer_2_2_">
		</g>
	</symbol>
	<symbol  id="clouds" viewBox="-89.05 -19.513 178.1 39.101">
		<g id="Layer_1_2_">
			<g>
				<path fill-rule="evenodd" clip-rule="evenodd" fill="#FFFFFF" fill-opacity="0.3176" d="M-87.6-13.1v1.05
					c0.934,2.6,2.883,4.6,5.85,6c2.667,1.2,5.367,1.75,8.1,1.65c-2.434,0.433-3.333,1.983-2.7,4.65c0.867,3.867,3.55,5.633,8.05,5.3
					c0.033,0.034,0.066,0.034,0.1,0c-0.066,0.1-0.1,0.2-0.1,0.3l-0.05,0.05c-0.066,0.3-0.066,0.633,0,1
					c0.434,3.6,2.517,5.983,6.25,7.15c3.767,1.167,7.7,1.184,11.8,0.05c0.566,1.7,1.833,2.883,3.8,3.55
					c3.733,1.333,7.683,1.367,11.85,0.1c1.1-0.333,1.816-0.783,2.15-1.35c0.467-0.767,0.433-1.533-0.1-2.3
					c-0.167-0.233-0.333-0.467-0.5-0.7c-0.2-0.2-0.4-0.4-0.6-0.6c0.434,0.067,0.85,0.1,1.25,0.1c4.434,0.367,7.45-0.833,9.05-3.6
					c0.967-1.8,1.35-3.533,1.15-5.2c2.633-0.033,4.95-0.733,6.95-2.1c2.966,1.967,6.566,2.717,10.8,2.25C-1.6,6.75,1.917,8,6.05,8
					c0.1,3.133,1.8,5.667,5.1,7.6c3.434,2,7.267,3.183,11.5,3.55c4.3,0.434,8.383,0.117,12.25-0.95
					c3.967-1.067,6.883-3.284,8.75-6.65c1.2-2.233,1.75-4.683,1.65-7.35c0.2,1.733,1.784,2.733,4.75,3
					c2.667,0.233,4.883-0.133,6.65-1.1c2.833-1.567,4.633-3.617,5.4-6.15c0.566-1.934,0.933-3.8,1.1-5.6
					c0.533,1.7,2.1,2.583,4.7,2.65c2.667,0.1,5.067-0.367,7.2-1.4c1.967-0.934,3.816-3.833,5.55-8.7h-29.6
					c-7.267-4.533-15.283-6.367-24.05-5.5c-3.567,0.5-5.917,2.333-7.05,5.5H-27.5c-6.533-5.733-14.033-7.467-22.5-5.2
					c-3,0.767-5.15,2.5-6.45,5.2H-87.6z M6.05,7.4c-0.033,0.2-0.033,0.4,0,0.6C6.017,7.8,6.017,7.6,6.05,7.4z M51.7-12.6
					c-0.233-0.167-0.45-0.333-0.65-0.5C51.25-12.933,51.467-12.767,51.7-12.6z M-15.3,2c0.133-0.067,0.267-0.15,0.4-0.25
					c2.7-2,3.267-4.383,1.7-7.15c2.667,2.8,6.534,3.283,11.6,1.45C2.167-5.283,4.35-7.633,4.95-11c0.1-0.467,0.233-0.9,0.4-1.3
					c-0.167,0.4-0.3,0.833-0.4,1.3C4.35-7.633,2.167-5.283-1.6-3.95C-6.667-2.117-10.533-2.6-13.2-5.4c1.567,2.767,1,5.15-1.7,7.15
					C-15.033,1.85-15.167,1.933-15.3,2z M19.95-13.1c1.133,3.7,3.033,4.383,5.7,2.05c0.133-0.167,0.217-0.4,0.25-0.7
					c-0.033,0.3-0.117,0.533-0.25,0.7C22.983-8.717,21.083-9.4,19.95-13.1z M-68.2,5.55c0.233-0.5,0.75-0.783,1.55-0.85
					C-67.45,4.767-67.967,5.05-68.2,5.55z M-50.3,14.1c-0.367-1-0.483-2.184-0.35-3.55c0.1-1.033,0.85-1.65,2.25-1.85
					c-1.4,0.2-2.15,0.816-2.25,1.85C-50.783,11.917-50.667,13.1-50.3,14.1z M-22.25,4.1c-0.167-1.333-0.717-2.617-1.65-3.85
					c-0.4-0.5-1.017-0.683-1.85-0.55c0.833-0.133,1.45,0.05,1.85,0.55C-22.967,1.483-22.417,2.767-22.25,4.1z M-41.95,11.65
					c3.5-1.2,6.25-0.816,8.25,1.15C-35.7,10.833-38.45,10.45-41.95,11.65z M-56.45-13.1c-0.2,4.733,2.15,6.05,7.05,3.95
					c1.066-0.4,1.617-1.184,1.65-2.35c-0.033,1.167-0.583,1.95-1.65,2.35C-54.3-7.05-56.65-8.367-56.45-13.1z M-73.65-4.4
					c0.467-0.1,1-0.15,1.6-0.15C-72.65-4.55-73.183-4.5-73.65-4.4z"/>
				
					<path fill-rule="evenodd" clip-rule="evenodd" fill="none" stroke="#FFFFFF" stroke-width="0.5" stroke-linecap="round" stroke-linejoin="round" stroke-miterlimit="3" d="
					M-87.6-12.05c0.934,2.6,2.883,4.6,5.85,6c2.667,1.2,5.367,1.75,8.1,1.65c-2.434,0.433-3.333,1.983-2.7,4.65
					c0.867,3.867,3.55,5.633,8.05,5.3c0.033,0.034,0.066,0.034,0.1,0c-0.066,0.1-0.1,0.2-0.1,0.3l-0.05,0.05
					c-0.066,0.3-0.066,0.633,0,1c0.434,3.6,2.517,5.983,6.25,7.15c3.767,1.167,7.7,1.184,11.8,0.05c0.566,1.7,1.833,2.883,3.8,3.55
					c3.733,1.333,7.683,1.367,11.85,0.1c1.1-0.333,1.816-0.783,2.15-1.35c0.467-0.767,0.433-1.533-0.1-2.3
					c-0.167-0.233-0.333-0.467-0.5-0.7c-0.2-0.2-0.4-0.4-0.6-0.6c0.434,0.067,0.85,0.1,1.25,0.1c4.434,0.367,7.45-0.833,9.05-3.6
					c0.967-1.8,1.35-3.533,1.15-5.2c2.633-0.033,4.95-0.733,6.95-2.1c2.966,1.967,6.566,2.717,10.8,2.25C-1.6,6.75,1.917,8,6.05,8
					c0.1,3.133,1.8,5.667,5.1,7.6c3.434,2,7.267,3.183,11.5,3.55c4.3,0.434,8.383,0.117,12.25-0.95
					c3.967-1.067,6.883-3.284,8.75-6.65c1.2-2.233,1.75-4.683,1.65-7.35c0.2,1.733,1.784,2.733,4.75,3
					c2.667,0.233,4.883-0.133,6.65-1.1c2.833-1.567,4.633-3.617,5.4-6.15c0.566-1.934,0.933-3.8,1.1-5.6
					c0.533,1.7,2.1,2.583,4.7,2.65c2.667,0.1,5.067-0.367,7.2-1.4c1.967-0.934,3.816-3.833,5.55-8.7h8.15 M6.05,7.4
					c-0.033,0.2-0.033,0.4,0,0.6 M51.05-13.1h29.6 M51.7-12.6c-0.233-0.167-0.45-0.333-0.65-0.5
					c-7.267-4.533-15.283-6.367-24.05-5.5c-3.567,0.5-5.917,2.333-7.05,5.5H-27.5c-6.533-5.733-14.033-7.467-22.5-5.2
					c-3,0.767-5.15,2.5-6.45,5.2H-87.6h-1.2 M-15.3,2c0.133-0.067,0.267-0.15,0.4-0.25c2.7-2,3.267-4.383,1.7-7.15
					c2.667,2.8,6.534,3.283,11.6,1.45C2.167-5.283,4.35-7.633,4.95-11c0.1-0.467,0.233-0.9,0.4-1.3 M19.95-13.1
					c1.133,3.7,3.033,4.383,5.7,2.05c0.133-0.167,0.217-0.4,0.25-0.7 M-68.2,5.55c0.233-0.5,0.75-0.783,1.55-0.85 M-50.3,14.1
					c-0.367-1-0.483-2.184-0.35-3.55c0.1-1.033,0.85-1.65,2.25-1.85 M-22.25,4.1c-0.167-1.333-0.717-2.617-1.65-3.85
					c-0.4-0.5-1.017-0.683-1.85-0.55 M-41.95,11.65c3.5-1.2,6.25-0.816,8.25,1.15 M-56.45-13.1c-0.2,4.733,2.15,6.05,7.05,3.95
					c1.066-0.4,1.617-1.184,1.65-2.35 M-73.65-4.4c0.467-0.1,1-0.15,1.6-0.15"/>
			</g>
		</g>
	</symbol>
</defs>
<use xlink:href="#cloudAnime"  width="178.1" height="39.101" x="-89.05" y="-19.563" transform="matrix(1.1651 0 0 -1.1651 103.752 22.7637)" overflow="visible" opacity="0.8398"/>
</svg>
